# This file uses meters as units for non-parametric coordinates.

mtllib tree_2.mtl
g default
v 480.417908 13.900848 -191.634964
v 456.571655 13.900848 -197.077698
v 437.448547 13.900848 -181.827484
v 437.448547 13.900848 -157.368042
v 456.571655 13.900848 -142.117828
v 480.417908 13.900848 -147.560562
v 491.030457 13.900848 -169.597763
v 472.724701 62.082260 -181.155777
v 460.217896 62.082260 -184.010361
v 450.188232 62.082260 -176.011978
v 450.188232 62.082260 -163.183548
v 460.217896 62.082260 -155.185165
v 472.724701 62.082260 -158.039749
v 478.290710 62.082260 -169.597763
v 463.251740 13.900848 -169.597763
v 471.611725 90.504395 -179.629272
v 460.745392 90.504395 -182.109436
v 452.031281 90.504395 -175.160156
v 452.031281 90.504395 -164.014389
v 460.667664 90.504395 -157.047363
v 471.689453 90.504395 -159.563019
v 476.447662 90.504395 -169.587280
v 522.186646 253.040588 -222.876022
v 467.580414 258.341003 -244.944611
v 412.974182 243.168182 -222.876022
v 390.355560 251.360168 -169.597763
v 412.974182 243.168182 -116.319504
v 467.580414 258.341003 -94.250916
v 522.186646 253.040588 -116.319489
v 544.805237 265.321838 -169.597748
v 454.446106 403.638062 -169.597763
v 530.390747 179.548309 -234.181122
v 463.929352 164.272308 -260.932434
v 397.467987 178.622406 -234.181122
v 369.938782 163.617584 -169.597763
v 397.467957 178.622406 -105.014412
v 463.929352 164.272308 -78.263092
v 530.390747 179.548309 -105.014397
v 557.919922 164.927032 -169.597748
v 462.559052 375.804047 -169.597763
v 544.146484 91.493835 -249.510345
v 462.010162 109.313629 -282.611206
v 379.873840 99.683380 -249.510345
v 345.851837 111.530647 -169.597763
v 379.873810 99.683380 -89.685188
v 462.010162 113.973312 -56.584290
v 544.146484 91.493835 -89.685165
v 578.168518 99.948875 -169.597748
v 473.400116 334.208862 -169.597763
v 532.177307 70.229591 -240.911560
v 459.045654 66.445023 -270.450714
v 385.913940 82.517281 -240.911560
v 355.621826 75.133728 -169.597763
v 385.913940 82.517281 -98.283974
v 459.045624 66.445023 -68.744812
v 532.177307 70.229591 -98.283951
v 562.469482 57.756317 -169.597748
v 478.528412 308.281677 -169.597763
v 502.444458 323.364899 -207.836380
v 463.320160 317.755798 -223.675339
v 424.195862 331.810150 -207.836380
v 407.990051 323.727509 -169.597763
v 424.195862 331.810150 -131.359146
v 463.320160 317.755798 -115.520187
v 502.444458 323.364899 -131.359131
v 518.650269 311.784119 -169.597748
v 476.710541 451.654785 -169.597763
vt 0.249580 0.509465
vt 0.130299 0.480077
vt 0.033767 0.556312
vt 0.034233 0.678245
vt 0.128616 0.753124
vt 0.245488 0.727379
vt 0.299689 0.620189
vt 0.016071 0.010714
vt 0.058708 0.010714
vt 0.101344 0.010714
vt 0.143980 0.010714
vt 0.186616 0.010714
vt 0.229252 0.010714
vt 0.271888 0.010714
vt 0.314524 0.010714
vt 0.016071 0.459516
vt 0.058708 0.459516
vt 0.101344 0.459516
vt 0.143980 0.459516
vt 0.186616 0.459516
vt 0.229252 0.459516
vt 0.271888 0.459516
vt 0.314524 0.459516
vt 0.565661 0.515098
vt 0.443103 0.478554
vt 0.337164 0.552022
vt 0.327696 0.681576
vt 0.425388 0.767084
vt 0.551864 0.744982
vt 0.612058 0.633242
vt 0.161770 0.616443
vt 0.504465 0.679671
vt 0.447031 0.688943
vt 0.404582 0.649976
vt 0.407113 0.592450
vt 0.454057 0.558629
vt 0.510707 0.574862
vt 0.533557 0.628683
vt 0.902142 0.037874
vt 0.928140 0.100638
vt 0.902142 0.163402
vt 0.839378 0.189400
vt 0.776614 0.163402
vt 0.750616 0.100638
vt 0.776614 0.037874
vt 0.839378 0.011876
vt 0.337500 0.013087
vt 0.380373 0.013087
vt 0.508990 0.356068
vt 0.423245 0.013087
vt 0.466118 0.013087
vt 0.508990 0.013087
vt 0.551863 0.013087
vt 0.594736 0.013087
vt 0.637608 0.013087
vt 0.680481 0.013087
vt 0.902142 0.037874
vt 0.928140 0.100638
vt 0.902142 0.163402
vt 0.839378 0.189399
vt 0.776614 0.163402
vt 0.750617 0.100638
vt 0.776614 0.037874
vt 0.839378 0.011876
vt 0.337500 0.013087
vt 0.380373 0.013087
vt 0.508990 0.356068
vt 0.423245 0.013087
vt 0.466118 0.013087
vt 0.508990 0.013087
vt 0.551863 0.013087
vt 0.594736 0.013087
vt 0.637608 0.013087
vt 0.680481 0.013087
vt 0.902142 0.037874
vt 0.928140 0.100638
vt 0.902142 0.163402
vt 0.839378 0.189399
vt 0.776614 0.163402
vt 0.750617 0.100638
vt 0.776614 0.037874
vt 0.839378 0.011876
vt 0.337500 0.013087
vt 0.380373 0.013087
vt 0.508990 0.356068
vt 0.423245 0.013087
vt 0.466118 0.013087
vt 0.508990 0.013087
vt 0.551863 0.013087
vt 0.594736 0.013087
vt 0.637608 0.013087
vt 0.680481 0.013087
vt 0.902142 0.037874
vt 0.928140 0.100638
vt 0.902142 0.163402
vt 0.839378 0.189399
vt 0.776614 0.163402
vt 0.750617 0.100638
vt 0.776614 0.037874
vt 0.839378 0.011876
vt 0.337500 0.013087
vt 0.380373 0.013087
vt 0.508990 0.356068
vt 0.423245 0.013087
vt 0.466118 0.013087
vt 0.508990 0.013087
vt 0.551863 0.013087
vt 0.594736 0.013087
vt 0.637608 0.013087
vt 0.680481 0.013087
vt 0.902142 0.037874
vt 0.928140 0.100638
vt 0.902142 0.163402
vt 0.839378 0.189400
vt 0.776614 0.163402
vt 0.750617 0.100638
vt 0.776614 0.037874
vt 0.839378 0.011876
vt 0.337500 0.013087
vt 0.380373 0.013087
vt 0.508990 0.356068
vt 0.423245 0.013087
vt 0.466118 0.013087
vt 0.508990 0.013087
vt 0.551863 0.013087
vt 0.594736 0.013087
vt 0.637608 0.013087
vt 0.680481 0.013087
vn 0.216000 0.240316 -0.946357
vn 0.216000 0.240316 -0.946357
vn 0.218202 0.196055 -0.956007
vn 0.218232 0.195396 -0.956136
vn -0.603542 0.250931 -0.756816
vn -0.603542 0.250931 -0.756816
vn -0.610275 0.204802 -0.765259
vn -0.610344 0.204266 -0.765347
vn -0.966776 0.255626 0.000000
vn -0.966776 0.255626 0.000000
vn -0.978050 0.208368 0.000000
vn -0.978047 0.208385 0.000000
vn -0.603542 0.250931 0.756816
vn -0.603542 0.250931 0.756816
vn -0.610898 0.203964 0.764985
vn -0.610825 0.204485 0.764905
vn 0.216000 0.240316 0.946358
vn 0.216000 0.240316 0.946357
vn 0.218252 0.194936 0.956225
vn 0.218223 0.195593 0.956097
vn 0.876442 0.231742 0.422072
vn 0.876442 0.231742 0.422072
vn 0.885164 0.188153 0.425539
vn 0.885109 0.188460 0.425518
vn 0.876443 0.231742 -0.422071
vn 0.876443 0.231742 -0.422071
vn 0.884781 0.188715 -0.426087
vn 0.884832 0.188418 -0.426111
vn 0.000000 -1.000000 -0.000000
vn 0.000000 -1.000000 -0.000000
vn 0.000000 -1.000000 -0.000000
vn 0.000000 -1.000000 -0.000000
vn 0.000000 -1.000000 0.000000
vn 0.000000 -1.000000 0.000000
vn 0.000000 -1.000000 0.000000
vn 0.000000 -1.000000 0.000000
vn 0.222108 0.060962 -0.973114
vn 0.222108 0.060962 -0.973114
vn -0.622222 0.063733 -0.780242
vn -0.622222 0.063733 -0.780242
vn -0.997904 0.064708 0.000000
vn -0.997904 0.064708 0.000000
vn -0.624318 0.062074 0.778700
vn -0.624318 0.062074 0.778700
vn 0.222117 0.060246 0.973157
vn 0.222117 0.060246 0.973157
vn 0.900627 0.057067 0.430829
vn 0.900627 0.057067 0.430829
vn 0.899428 0.058482 -0.433140
vn 0.899428 0.058482 -0.433140
vn 0.090029 -0.995939 -0.000000
vn 0.090029 -0.995939 -0.000000
vn 0.090029 -0.995939 -0.000000
vn 0.090029 -0.995939 -0.000000
vn 0.090029 -0.995939 -0.000000
vn 0.090029 -0.995939 -0.000000
vn 0.090029 -0.995939 -0.000000
vn 0.090029 -0.995939 -0.000000
vn 0.371423 0.453662 -0.810084
vn 0.371423 0.453662 -0.810084
vn 0.371423 0.453662 -0.810084
vn -0.435627 0.383030 -0.814565
vn -0.435627 0.383030 -0.814565
vn -0.435627 0.383030 -0.814565
vn -0.840216 0.353629 -0.411076
vn -0.840216 0.353629 -0.411076
vn -0.840216 0.353629 -0.411076
vn -0.840216 0.353629 0.411076
vn -0.840216 0.353629 0.411076
vn -0.840216 0.353629 0.411076
vn -0.435627 0.383031 0.814565
vn -0.435627 0.383031 0.814565
vn -0.435627 0.383031 0.814565
vn 0.371423 0.453662 0.810084
vn 0.371423 0.453662 0.810084
vn 0.371423 0.453662 0.810084
vn 0.754305 0.492772 0.433820
vn 0.754305 0.492772 0.433820
vn 0.754305 0.492772 0.433820
vn 0.754305 0.492772 -0.433820
vn 0.754305 0.492772 -0.433820
vn 0.754305 0.492772 -0.433820
vn 0.006966 -0.999976 0.000000
vn 0.006966 -0.999976 0.000000
vn 0.006966 -0.999976 0.000000
vn 0.006966 -0.999976 0.000000
vn 0.006966 -0.999976 0.000000
vn 0.006966 -0.999976 0.000000
vn 0.006966 -0.999976 0.000000
vn 0.006966 -0.999976 0.000000
vn 0.267672 0.383401 -0.883943
vn 0.267672 0.383401 -0.883943
vn 0.267672 0.383401 -0.883943
vn -0.273685 0.379775 -0.883667
vn -0.273685 0.379775 -0.883667
vn -0.273685 0.379775 -0.883667
vn -0.878390 0.383421 -0.285340
vn -0.878390 0.383421 -0.285340
vn -0.878390 0.383421 -0.285340
vn -0.878390 0.383421 0.285340
vn -0.878390 0.383421 0.285340
vn -0.878390 0.383421 0.285340
vn -0.273685 0.379775 0.883667
vn -0.273685 0.379775 0.883667
vn -0.273685 0.379775 0.883667
vn 0.267671 0.383401 0.883943
vn 0.267671 0.383401 0.883943
vn 0.267671 0.383401 0.883943
vn 0.873907 0.395190 0.283041
vn 0.873907 0.395190 0.283041
vn 0.873907 0.395190 0.283041
vn 0.873907 0.395190 -0.283041
vn 0.873907 0.395190 -0.283041
vn 0.873907 0.395190 -0.283041
vn -0.049789 -0.998707 0.010294
vn -0.049789 -0.998707 0.010294
vn -0.049789 -0.998707 0.010294
vn -0.049789 -0.998707 0.010294
vn -0.049789 -0.998707 0.010294
vn -0.049789 -0.998707 0.010294
vn -0.049789 -0.998707 0.010294
vn -0.049789 -0.998707 0.010294
vn 0.415758 0.391466 -0.820914
vn 0.415758 0.391466 -0.820914
vn 0.415758 0.391466 -0.820914
vn -0.380340 0.430574 -0.818503
vn -0.380340 0.430574 -0.818503
vn -0.380340 0.430574 -0.818503
vn -0.793335 0.454416 -0.405124
vn -0.793335 0.454416 -0.405123
vn -0.793336 0.454416 -0.405123
vn -0.793336 0.454416 0.405123
vn -0.793336 0.454416 0.405123
vn -0.793336 0.454416 0.405123
vn -0.400666 0.434617 0.806582
vn -0.400666 0.434617 0.806582
vn -0.400666 0.434617 0.806582
vn 0.434238 0.393380 0.810364
vn 0.434238 0.393380 0.810364
vn 0.434238 0.393380 0.810364
vn 0.838061 0.374807 0.396453
vn 0.838061 0.374807 0.396452
vn 0.838061 0.374807 0.396452
vn 0.838061 0.374806 -0.396452
vn 0.838061 0.374806 -0.396452
vn 0.838061 0.374806 -0.396452
vn -0.083716 -0.996490 -0.000000
vn -0.083716 -0.996490 -0.000000
vn -0.083716 -0.996490 -0.000000
vn -0.083716 -0.996490 -0.000000
vn -0.083716 -0.996490 -0.000000
vn -0.083716 -0.996490 -0.000000
vn -0.083716 -0.996490 -0.000000
vn -0.083716 -0.996490 -0.000000
vn 0.337191 0.339090 -0.878248
vn 0.337191 0.339090 -0.878248
vn 0.337191 0.339090 -0.878248
vn -0.270226 0.389045 -0.880694
vn -0.270226 0.389045 -0.880694
vn -0.270226 0.389045 -0.880694
vn -0.840680 0.443174 -0.311213
vn -0.840680 0.443174 -0.311213
vn -0.840680 0.443174 -0.311213
vn -0.840680 0.443174 0.311213
vn -0.840680 0.443174 0.311213
vn -0.840680 0.443174 0.311213
vn -0.270227 0.389045 0.880694
vn -0.270227 0.389045 0.880694
vn -0.270227 0.389045 0.880694
vn 0.337192 0.339090 0.878248
vn 0.337192 0.339090 0.878248
vn 0.337192 0.339090 0.878248
vn 0.895738 0.300126 0.327991
vn 0.895738 0.300126 0.327991
vn 0.895738 0.300126 0.327991
vn 0.895738 0.300126 -0.327991
vn 0.895738 0.300126 -0.327991
vn 0.895738 0.300126 -0.327991
vn -0.107305 -0.994226 0.000000
vn -0.107305 -0.994226 0.000000
vn -0.107305 -0.994226 0.000000
vn -0.107305 -0.994226 0.000000
vn -0.107305 -0.994226 0.000000
vn -0.107305 -0.994226 0.000000
vn -0.107305 -0.994226 0.000000
vn -0.107305 -0.994226 0.000000
vn 0.313594 0.328462 -0.890939
vn 0.313594 0.328462 -0.890938
vn 0.313594 0.328462 -0.890939
vn -0.224559 0.384141 -0.895549
vn -0.224559 0.384141 -0.895549
vn -0.224559 0.384141 -0.895549
vn -0.849771 0.456483 -0.263651
vn -0.849771 0.456483 -0.263651
vn -0.849771 0.456483 -0.263651
vn -0.849771 0.456483 0.263651
vn -0.849771 0.456483 0.263651
vn -0.849771 0.456483 0.263651
vn -0.224559 0.384141 0.895549
vn -0.224559 0.384141 0.895549
vn -0.224559 0.384141 0.895549
vn 0.313594 0.328462 0.890938
vn 0.313594 0.328462 0.890938
vn 0.313594 0.328462 0.890939
vn 0.912569 0.273630 0.303883
vn 0.912569 0.273630 0.303883
vn 0.912569 0.273630 0.303883
vn 0.912569 0.273630 -0.303883
vn 0.912569 0.273630 -0.303883
vn 0.912569 0.273630 -0.303883
s 1
g Tree_2_tree_trunk
usemtl initialShadingGroup
f 1/8/1 2/9/2 9/17/3 8/16/4
s 2
f 2/9/5 3/10/6 10/18/7 9/17/8
s 3
f 3/10/9 4/11/10 11/19/11 10/18/12
s 4
f 4/11/13 5/12/14 12/20/15 11/19/16
s 5
f 5/12/17 6/13/18 13/21/19 12/20/20
s 6
f 6/13/21 7/14/22 14/22/23 13/21/24
s 7
f 7/14/25 1/15/26 8/23/27 14/22/28
s 8
f 2/2/29 1/1/30 15/31/31
f 3/3/32 2/2/29 15/31/31
f 4/4/33 3/3/32 15/31/31
f 5/5/34 4/4/33 15/31/31
f 6/6/35 5/5/34 15/31/31
f 7/7/36 6/6/35 15/31/31
f 1/1/30 7/7/36 15/31/31
s 1
f 8/29/4 9/28/3 17/33/37 16/32/38
s 2
f 9/28/8 10/27/7 18/34/39 17/33/40
s 3
f 10/27/12 11/26/11 19/35/41 18/34/42
s 4
f 11/26/16 12/25/15 20/36/43 19/35/44
s 5
f 12/25/20 13/24/19 21/37/45 20/36/46
s 6
f 13/24/24 14/30/23 22/38/47 21/37/48
s 7
f 14/30/28 8/29/27 16/32/49 22/38/50
s off
f 23/39/51 30/40/52 29/41/53 28/42/54 27/43/55 26/44/56 25/45/57 24/46/58
f 23/47/59 24/48/60 31/49/61
f 24/48/62 25/50/63 31/49/64
f 25/50/65 26/51/66 31/49/67
f 26/51/68 27/52/69 31/49/70
f 27/52/71 28/53/72 31/49/73
f 28/53/74 29/54/75 31/49/76
f 29/54/77 30/55/78 31/49/79
f 30/55/80 23/56/81 31/49/82
f 32/57/83 39/58/84 38/59/85 37/60/86 36/61/87 35/62/88 34/63/89 33/64/90
f 32/65/91 33/66/92 40/67/93
f 33/66/94 34/68/95 40/67/96
f 34/68/97 35/69/98 40/67/99
f 35/69/100 36/70/101 40/67/102
f 36/70/103 37/71/104 40/67/105
f 37/71/106 38/72/107 40/67/108
f 38/72/109 39/73/110 40/67/111
f 39/73/112 32/74/113 40/67/114
f 41/75/115 48/76/116 47/77/117 46/78/118 45/79/119 44/80/120 43/81/121 42/82/122
f 41/83/123 42/84/124 49/85/125
f 42/84/126 43/86/127 49/85/128
f 43/86/129 44/87/130 49/85/131
f 44/87/132 45/88/133 49/85/134
f 45/88/135 46/89/136 49/85/137
f 46/89/138 47/90/139 49/85/140
f 47/90/141 48/91/142 49/85/143
f 48/91/144 41/92/145 49/85/146
f 50/93/147 57/94/148 56/95/149 55/96/150 54/97/151 53/98/152 52/99/153 51/100/154
f 50/101/155 51/102/156 58/103/157
f 51/102/158 52/104/159 58/103/160
f 52/104/161 53/105/162 58/103/163
f 53/105/164 54/106/165 58/103/166
f 54/106/167 55/107/168 58/103/169
f 55/107/170 56/108/171 58/103/172
f 56/108/173 57/109/174 58/103/175
f 57/109/176 50/110/177 58/103/178
f 59/111/179 66/112/180 65/113/181 64/114/182 63/115/183 62/116/184 61/117/185 60/118/186
f 59/119/187 60/120/188 67/121/189
f 60/120/190 61/122/191 67/121/192
f 61/122/193 62/123/194 67/121/195
f 62/123/196 63/124/197 67/121/198
f 63/124/199 64/125/200 67/121/201
f 64/125/202 65/126/203 67/121/204
f 65/126/205 66/127/206 67/121/207
f 66/127/208 59/128/209 67/121/210
